<svg xmlns="http://www.w3.org/2000/svg" width="980" height="420"><rect width="100%" height="100%" fill="white"/><text x="10" y="25" font-size="18" font-weight="bold">Companies per sector</text><text x="10" y="69" font-size="12">Financials</text><rect x="300" y="55" width="650.0" height="18" fill="#2563eb"/><text x="955.0" y="69" font-size="12">18</text><text x="10" y="99" font-size="12">Information Technology</text><rect x="300" y="85" width="613.9" height="18" fill="#2563eb"/><text x="918.9" y="99" font-size="12">17</text><text x="10" y="129" font-size="12">Health Care</text><rect x="300" y="115" width="541.7" height="18" fill="#2563eb"/><text x="846.7" y="129" font-size="12">15</text><text x="10" y="159" font-size="12">Industrials</text><rect x="300" y="145" width="505.6" height="18" fill="#2563eb"/><text x="810.6" y="159" font-size="12">14</text><text x="10" y="189" font-size="12">Consumer Discretionary</text><rect x="300" y="175" width="361.1" height="18" fill="#2563eb"/><text x="666.1" y="189" font-size="12">10</text><text x="10" y="219" font-size="12">Consumer Staples</text><rect x="300" y="205" width="325.0" height="18" fill="#2563eb"/><text x="630.0" y="219" font-size="12">9</text><text x="10" y="249" font-size="12">Communication Services</text><rect x="300" y="235" width="288.9" height="18" fill="#2563eb"/><text x="593.9" y="249" font-size="12">8</text><text x="10" y="279" font-size="12">Energy</text><rect x="300" y="265" width="108.3" height="18" fill="#2563eb"/><text x="413.3" y="279" font-size="12">3</text><text x="10" y="309" font-size="12">Utilities</text><rect x="300" y="295" width="108.3" height="18" fill="#2563eb"/><text x="413.3" y="309" font-size="12">3</text><text x="10" y="339" font-size="12">Real Estate</text><rect x="300" y="325" width="72.2" height="18" fill="#2563eb"/><text x="377.2" y="339" font-size="12">2</text><text x="10" y="369" font-size="12">Materials</text><rect x="300" y="355" width="36.1" height="18" fill="#2563eb"/><text x="341.1" y="369" font-size="12">1</text></svg>