<svg xmlns="http://www.w3.org/2000/svg" width="980" height="480"><rect width="100%" height="100%" fill="white"/><text x="10" y="25" font-size="18" font-weight="bold">Filings over time (month)</text><text x="10" y="69" font-size="12">2025-07</text><rect x="300" y="55" width="17.3" height="18" fill="#059669"/><text x="322.3" y="69" font-size="12">2</text><text x="10" y="99" font-size="12">2025-08</text><rect x="300" y="85" width="34.7" height="18" fill="#059669"/><text x="339.7" y="99" font-size="12">4</text><text x="10" y="129" font-size="12">2025-09</text><rect x="300" y="115" width="34.7" height="18" fill="#059669"/><text x="339.7" y="129" font-size="12">4</text><text x="10" y="159" font-size="12">2025-10</text><rect x="300" y="145" width="43.3" height="18" fill="#059669"/><text x="348.3" y="159" font-size="12">5</text><text x="10" y="189" font-size="12">2025-11</text><rect x="300" y="175" width="52.0" height="18" fill="#059669"/><text x="357.0" y="189" font-size="12">6</text><text x="10" y="219" font-size="12">2025-12</text><rect x="300" y="205" width="52.0" height="18" fill="#059669"/><text x="357.0" y="219" font-size="12">6</text><text x="10" y="249" font-size="12">2026-01</text><rect x="300" y="235" width="138.7" height="18" fill="#059669"/><text x="443.7" y="249" font-size="12">16</text><text x="10" y="279" font-size="12">2026-02</text><rect x="300" y="265" width="572.0" height="18" fill="#059669"/><text x="877.0" y="279" font-size="12">66</text><text x="10" y="309" font-size="12">2026-03</text><rect x="300" y="295" width="407.3" height="18" fill="#059669"/><text x="712.3" y="309" font-size="12">47</text><text x="10" y="339" font-size="12">2026-04</text><rect x="300" y="325" width="572.0" height="18" fill="#059669"/><text x="877.0" y="339" font-size="12">66</text><text x="10" y="369" font-size="12">2026-05</text><rect x="300" y="355" width="650.0" height="18" fill="#059669"/><text x="955.0" y="369" font-size="12">75</text><text x="10" y="399" font-size="12">2026-06</text><rect x="300" y="385" width="615.3" height="18" fill="#059669"/><text x="920.3" y="399" font-size="12">71</text><text x="10" y="429" font-size="12">2026-07</text><rect x="300" y="415" width="277.3" height="18" fill="#059669"/><text x="582.3" y="429" font-size="12">32</text></svg>